solid ASCII
  facet normal 0.000000e+00 -7.071068e-01 7.071068e-01
    outer loop
      vertex   1.000000e+01 1.150000e+02 5.000000e+00
      vertex   -1.000000e+01 1.150000e+02 5.000000e+00
      vertex   1.250000e+01 1.125000e+02 2.500000e+00
    endloop
  endfacet
  facet normal 0.000000e+00 -7.071068e-01 7.071068e-01
    outer loop
      vertex   1.250000e+01 1.125000e+02 2.500000e+00
      vertex   -1.000000e+01 1.150000e+02 5.000000e+00
      vertex   -1.250000e+01 1.125000e+02 2.500000e+00
    endloop
  endfacet
  facet normal -7.071068e-01 0.000000e+00 7.071068e-01
    outer loop
      vertex   -1.000000e+01 1.150000e+02 5.000000e+00
      vertex   -1.000000e+01 1.350000e+02 5.000000e+00
      vertex   -1.250000e+01 1.125000e+02 2.500000e+00
    endloop
  endfacet
  facet normal -7.071068e-01 0.000000e+00 7.071068e-01
    outer loop
      vertex   -1.250000e+01 1.125000e+02 2.500000e+00
      vertex   -1.000000e+01 1.350000e+02 5.000000e+00
      vertex   -1.250000e+01 1.375000e+02 2.500000e+00
    endloop
  endfacet
  facet normal -0.000000e+00 7.071068e-01 7.071068e-01
    outer loop
      vertex   -1.000000e+01 1.350000e+02 5.000000e+00
      vertex   1.000000e+01 1.350000e+02 5.000000e+00
      vertex   -1.250000e+01 1.375000e+02 2.500000e+00
    endloop
  endfacet
  facet normal -0.000000e+00 7.071068e-01 7.071068e-01
    outer loop
      vertex   -1.250000e+01 1.375000e+02 2.500000e+00
      vertex   1.000000e+01 1.350000e+02 5.000000e+00
      vertex   1.250000e+01 1.375000e+02 2.500000e+00
    endloop
  endfacet
  facet normal 7.071068e-01 0.000000e+00 7.071068e-01
    outer loop
      vertex   1.250000e+01 1.375000e+02 2.500000e+00
      vertex   1.000000e+01 1.350000e+02 5.000000e+00
      vertex   1.250000e+01 1.125000e+02 2.500000e+00
    endloop
  endfacet
  facet normal 7.071068e-01 0.000000e+00 7.071068e-01
    outer loop
      vertex   1.250000e+01 1.125000e+02 2.500000e+00
      vertex   1.000000e+01 1.350000e+02 5.000000e+00
      vertex   1.000000e+01 1.150000e+02 5.000000e+00
    endloop
  endfacet
  facet normal 1.000000e+00 0.000000e+00 0.000000e+00
    outer loop
      vertex   1.250000e+01 1.375000e+02 2.500000e+00
      vertex   1.250000e+01 1.125000e+02 2.500000e+00
      vertex   1.250000e+01 1.375000e+02 0.000000e+00
    endloop
  endfacet
  facet normal 1.000000e+00 0.000000e+00 0.000000e+00
    outer loop
      vertex   1.250000e+01 1.375000e+02 0.000000e+00
      vertex   1.250000e+01 1.125000e+02 2.500000e+00
      vertex   1.250000e+01 1.125000e+02 0.000000e+00
    endloop
  endfacet
  facet normal -0.000000e+00 -1.000000e+00 -0.000000e+00
    outer loop
      vertex   1.250000e+01 1.125000e+02 2.500000e+00
      vertex   -1.250000e+01 1.125000e+02 2.500000e+00
      vertex   1.250000e+01 1.125000e+02 0.000000e+00
    endloop
  endfacet
  facet normal 0.000000e+00 -1.000000e+00 0.000000e+00
    outer loop
      vertex   1.250000e+01 1.125000e+02 0.000000e+00
      vertex   -1.250000e+01 1.125000e+02 2.500000e+00
      vertex   -1.250000e+01 1.125000e+02 0.000000e+00
    endloop
  endfacet
  facet normal 0.000000e+00 0.000000e+00 1.000000e+00
    outer loop
      vertex   -1.000000e+01 1.150000e+02 5.000000e+00
      vertex   1.000000e+01 1.150000e+02 5.000000e+00
      vertex   -1.000000e+01 1.350000e+02 5.000000e+00
    endloop
  endfacet
  facet normal -0.000000e+00 0.000000e+00 1.000000e+00
    outer loop
      vertex   -1.000000e+01 1.350000e+02 5.000000e+00
      vertex   1.000000e+01 1.150000e+02 5.000000e+00
      vertex   1.000000e+01 1.350000e+02 5.000000e+00
    endloop
  endfacet
  facet normal -1.000000e+00 0.000000e+00 0.000000e+00
    outer loop
      vertex   -1.250000e+01 1.125000e+02 2.500000e+00
      vertex   -1.250000e+01 1.375000e+02 2.500000e+00
      vertex   -1.250000e+01 1.125000e+02 0.000000e+00
    endloop
  endfacet
  facet normal -1.000000e+00 0.000000e+00 0.000000e+00
    outer loop
      vertex   -1.250000e+01 1.125000e+02 0.000000e+00
      vertex   -1.250000e+01 1.375000e+02 2.500000e+00
      vertex   -1.250000e+01 1.375000e+02 0.000000e+00
    endloop
  endfacet
  facet normal -0.000000e+00 1.000000e+00 0.000000e+00
    outer loop
      vertex   -1.250000e+01 1.375000e+02 2.500000e+00
      vertex   1.250000e+01 1.375000e+02 2.500000e+00
      vertex   -1.250000e+01 1.375000e+02 0.000000e+00
    endloop
  endfacet
  facet normal 0.000000e+00 1.000000e+00 0.000000e+00
    outer loop
      vertex   -1.250000e+01 1.375000e+02 0.000000e+00
      vertex   1.250000e+01 1.375000e+02 2.500000e+00
      vertex   1.250000e+01 1.375000e+02 0.000000e+00
    endloop
  endfacet
  facet normal 0.000000e+00 0.000000e+00 -1.000000e+00
    outer loop
      vertex   -1.250000e+01 1.375000e+02 0.000000e+00
      vertex   1.250000e+01 1.375000e+02 0.000000e+00
      vertex   -1.250000e+01 1.125000e+02 0.000000e+00
    endloop
  endfacet
  facet normal 0.000000e+00 0.000000e+00 -1.000000e+00
    outer loop
      vertex   -1.250000e+01 1.125000e+02 0.000000e+00
      vertex   1.250000e+01 1.375000e+02 0.000000e+00
      vertex   1.250000e+01 1.125000e+02 0.000000e+00
    endloop
  endfacet
endsolid
